# xmcd
# 
# Track frame offsets:
#     150
#     3667
#     11002
#     22090
#     27850
#     38342
#     46667
#     50015
#     53237
#     63652
#     70097
#     74836
#     88742
#     98035
#     106676
#     114919
#     120950
#     131608
#     139768
#     147585
#     157214
#     168438
#     175894
#     183645
#     191823
#     198492
#     205535
#     222477
#     231698
#     241169
#     253182
#     261704
# 
# Disc length: 3591
# 
# Revision: 5
# Processed by: cddbd v1.5.2PL0 Copyright (c) Steve Scherf et al.
# Submitted via: fre:ac v1.0.31
# 
DISCID=e40e0520
DTITLE=Johnny Cash - Bootleg, Vol. 2 From Memphis To Hollywood The 1950s Disc 1
DYEAR=2011
DGENRE=Country
TTITLE0=KWEN Announcements and Advertistments (On The Air)
TTITLE1=Johnny Cash Show Intro and Theme (On The Air)
TTITLE2=Wide Open Road (On The Air)
TTITLE3=Home Equipment Company Advertisement (On The Air)
TTITLE4=One More Ride (On The Air)
TTITLE5=Home Equipment Company Advertisement/Luther Perkins Intro (On The Air)
TTITLE6=Luther's Boogie (On The Air)
TTITLE7=Belshazzar Intro (On The Air)
TTITLE8=Belshazzar (On The Air)
TTITLE9=Closing Comments and Theme (On The Air)
TTITLE10=Overton Park Shell "Country Music Jamboree" Advertisement by "Texas" Bill Strength. Broadcast August 4, 1955 (On The Air)
TTITLE11=I Walk the Line (Early Demos)
TTITLE12=Get Rhythm (Early Demos)
TTITLE13=Train of Love (Early Demos)
TTITLE14=Country Boy (Early Demos)
TTITLE15=My Treasure (Early Demos)
TTITLE16=Belshazzar (Early Demos)
TTITLE17=He'll Be a Friend (Early Demos)
TTITLE18=When I Think of You (Early Demos)
TTITLE19=I Just Don't Care Enough (To Carry On) (Early Demos)
TTITLE20=I'll Cry for You (Early Demos)
TTITLE21=You're My Baby (Early Demos)
TTITLE22=Rock and Roll Ruby (Early Demos)
TTITLE23=Wide Open Road (Sun Rarities)
TTITLE24=Leave That Junk Alone (Sun Rarities)
TTITLE25=Brakeman's Blues [Incomplete] (Sun Rarities)
TTITLE26=Big River (Sun Rarities)
TTITLE27=I Couldn't Keep from Crying (Sun Rarities)
TTITLE28=New Mexico (Sun Rarities)
TTITLE29=Goodnight Irene (Sun Rarities)
TTITLE30=Restless Kid (More Demos)
TTITLE31=Its All Over (More Demos)
EXTD=
EXTT0=
EXTT1=
EXTT2=
EXTT3=
EXTT4=
EXTT5=
EXTT6=
EXTT7=
EXTT8=
EXTT9=
EXTT10=
EXTT11=
EXTT12=
EXTT13=
EXTT14=
EXTT15=
EXTT16=
EXTT17=
EXTT18=
EXTT19=
EXTT20=
EXTT21=
EXTT22=
EXTT23=
EXTT24=
EXTT25=
EXTT26=
EXTT27=
EXTT28=
EXTT29=
EXTT30=
EXTT31=
PLAYORDER=
